<?xml version="1.0" encoding="UTF-8" standalone="no"?>
<svg
   xmlns:dc="http://purl.org/dc/elements/1.1/"
   xmlns:cc="http://creativecommons.org/ns#"
   xmlns:rdf="http://www.w3.org/1999/02/22-rdf-syntax-ns#"
   xmlns:svg="http://www.w3.org/2000/svg"
   xmlns="http://www.w3.org/2000/svg"
   xmlns:sodipodi="http://sodipodi.sourceforge.net/DTD/sodipodi-0.dtd"
   xmlns:inkscape="http://www.inkscape.org/namespaces/inkscape"
   height="24"
   viewBox="0 0 24 24"
   width="24"
   version="1.1"
   id="svg4566"
   sodipodi:docname="dazdigitize.svg"
   inkscape:version="1.0.2 (e86c870879, 2021-01-15, custom)"
   inkscape:export-xdpi="96"
   inkscape:export-ydpi="96">
  <metadata
     id="metadata4572">
    <rdf:RDF>
      <cc:Work
         rdf:about="">
        <dc:format>image/svg+xml</dc:format>
        <dc:type
           rdf:resource="http://purl.org/dc/dcmitype/StillImage" />
        <dc:title></dc:title>
      </cc:Work>
    </rdf:RDF>
  </metadata>
  <defs
     id="defs4570" />
  <sodipodi:namedview
     pagecolor="#ffffff"
     bordercolor="#666666"
     borderopacity="1"
     objecttolerance="10"
     gridtolerance="10"
     guidetolerance="10"
     inkscape:pageopacity="0"
     inkscape:pageshadow="2"
     inkscape:window-width="1920"
     inkscape:window-height="1003"
     id="namedview4568"
     showgrid="false"
     inkscape:zoom="26"
     inkscape:cx="2.1541679"
     inkscape:cy="10.25601"
     inkscape:window-x="-8"
     inkscape:window-y="6"
     inkscape:window-maximized="1"
     inkscape:current-layer="g4564"
     inkscape:document-rotation="0" />
  <linearGradient
     gradientUnits="userSpaceOnUse"
     x1="-10"
     x2="-10"
     y1="15"
     y2="21"
     id="linearGradient4548">
    <stop
       offset="0"
       stop-color="#555753"
       id="stop4544" />
    <stop
       offset="1"
       stop-color="#555753"
       stop-opacity="0"
       id="stop4546" />
  </linearGradient>
  <g
     transform="translate(0,-8)"
     id="g4564">
    <g
       aria-label="Az"
       id="text4576"
       style="font-style:normal;font-weight:normal;font-size:40px;line-height:125%;font-family:sans-serif;letter-spacing:0px;word-spacing:0px;fill:#8cbe8c;fill-opacity:1;stroke:#4c4d4c;stroke-width:0.377953;stroke-linecap:butt;stroke-linejoin:miter;stroke-miterlimit:4;stroke-dasharray:none;stroke-opacity:0.933333">
      <path
         d="M 6.3387938,14.759064 6.0425697,13.980418 H 3.5204334 l -0.2962241,0.795573 q -0.1735027,0.465495 -0.2962241,0.630534 -0.1227214,0.160808 -0.4020183,0.160808 -0.2369793,0 -0.4189455,-0.173503 -0.1819662,-0.173503 -0.1819662,-0.393555 0,-0.126953 0.042318,-0.26237 0.042318,-0.135416 0.1396485,-0.376628 L 3.693936,10.33263 Q 3.7616444,10.159128 3.8547434,9.9179165 3.9520742,9.6724737 4.0578685,9.5116663 4.1678946,9.350859 4.3413972,9.2535282 4.5191317,9.1519657 4.7772698,9.1519657 q 0.2623699,0 0.4358725,0.1015625 0.1777345,0.097331 0.2835288,0.2539064 0.1100261,0.1565755 0.1819662,0.3385418 0.076172,0.1777346 0.1904298,0.4781906 l 1.6207688,4.003256 q 0.1904297,0.457032 0.1904297,0.664389 0,0.21582 -0.1819662,0.397786 -0.1777344,0.177735 -0.4316408,0.177735 -0.148112,0 -0.2539063,-0.05501 -0.1057943,-0.05078 -0.1777344,-0.139649 -0.07194,-0.0931 -0.1565756,-0.279297 -0.080404,-0.19043 -0.1396485,-0.33431 z M 3.8505116,13.036733 H 5.7040279 L 4.7688062,10.47651 Z"
         style="font-style:normal;font-variant:normal;font-weight:bold;font-stretch:normal;font-size:8.66667px;line-height:100%;font-family:'Arial Rounded MT Bold';-inkscape-font-specification:'Arial Rounded MT Bold, Bold';fill:#8cbe8c;fill-opacity:1;stroke:#4c4d4c;stroke-width:0.377953;stroke-miterlimit:4;stroke-dasharray:none;stroke-opacity:0.933333"
         id="path847" />
      <path
         d="m 11.662364,12.19461 -2.1158866,2.365561 h 2.2639986 q 0.275065,0 0.414713,0.131185 0.139649,0.126953 0.139649,0.330078 0,0.194662 -0.139649,0.317383 -0.135416,0.122721 -0.414713,0.122721 H 8.678964 q -0.3300782,0 -0.4951174,-0.14388 -0.1608073,-0.14388 -0.1608073,-0.393555 0,-0.148112 0.1142579,-0.296224 0.1142578,-0.152344 0.4739585,-0.554362 0.3808595,-0.423177 0.6897789,-0.765951 0.3131511,-0.342773 0.5797528,-0.638997 0.2666016,-0.300456 0.4401046,-0.507813 0.177734,-0.207357 0.283528,-0.355469 H 8.8863209 q -0.3554689,0 -0.5374351,-0.06348 -0.1819662,-0.06348 -0.1819662,-0.33431 0,-0.198893 0.1354167,-0.317383 0.1396485,-0.118489 0.3935548,-0.118489 h 2.6533209 q 0.368165,0 0.562826,0.110026 0.198893,0.105794 0.198893,0.385091 0,0.0931 -0.03809,0.194662 -0.03808,0.09733 -0.08463,0.160807 -0.04655,0.06348 -0.126953,0.156576 -0.0804,0.08887 -0.198893,0.21582 z"
         style="font-style:normal;font-variant:normal;font-weight:bold;font-stretch:normal;font-size:8.66667px;line-height:100%;font-family:'Arial Rounded MT Bold';-inkscape-font-specification:'Arial Rounded MT Bold, Bold';fill:#8cbe8c;fill-opacity:1;stroke:#4c4d4c;stroke-width:0.377953;stroke-miterlimit:4;stroke-dasharray:none;stroke-opacity:0.933333"
         id="path849" />
    </g>
    <g
       transform="translate(33,8)"
       id="g4556">
      <rect
         height="11"
         rx="2.0114901"
         width="11"
         x="-20"
         y="13"
         id="rect4550"
         style="fill:#c4a000" />
      <path
         d="m -15,14 v 2.0625 c -0.537663,0.111041 -1.024662,0.383291 -1.375,0.78125 l -1.78125,-1.03125 -0.5,0.875 1.78125,1.03125 C -16.957063,17.966182 -17,18.225145 -17,18.5 c 0,0.274855 0.04294,0.533818 0.125,0.78125 l -1.78125,1.03125 0.5,0.875 1.78125,-1.03125 c 0.352503,0.40042 0.832682,0.670182 1.375,0.78125 V 23 h 1 v -2.0625 c 0.537663,-0.111041 1.024662,-0.383291 1.375,-0.78125 l 1.78125,1.03125 0.5,-0.875 -1.78125,-1.03125 C -12.042937,19.033818 -12,18.774855 -12,18.5 c 0,-0.274855 -0.04294,-0.533818 -0.125,-0.78125 l 1.78125,-1.03125 -0.5,-0.875 -1.78125,1.03125 C -12.977503,16.44333 -13.457682,16.173568 -14,16.0625 V 14 Z m 0.5,3.5 c 0.552,0 1,0.448 1,1 0,0.552 -0.448,1 -1,1 -0.552,0 -1,-0.448 -1,-1 0,-0.552 0.448,-1 1,-1 z"
         id="path4552"
         inkscape:connector-curvature="0"
         style="fill:#fcffff" />
      <path
         d="m -19,19 9,-0.0096 c 0,0 0,0 0,-2 C -10,14 -11,14 -14.5,14 c -3.5,0 -4.5,0 -4.5,3 0,2 0,2 0,2 z"
         id="path4554"
         inkscape:connector-curvature="0"
         style="opacity:0.3;fill:#fcffff;fill-rule:evenodd" />
    </g>
    <rect
       height="5"
       rx="3.125"
       width="5"
       x="3.6538463"
       y="25.384615"
       id="rect4562"
       style="fill:#8cbe8c;stroke:#4c4d4c;stroke-width:1;stroke-linecap:round;stroke-opacity:1"
       inkscape:export-xdpi="96"
       inkscape:export-ydpi="96" />
    <rect
       height="5"
       rx="3.125"
       width="5"
       x="17.076921"
       y="10.692308"
       id="rect4562-9"
       style="fill:#c4a000;fill-opacity:1;stroke:#4c4d4c;stroke-width:1;stroke-linecap:round;stroke-opacity:1"
       inkscape:export-xdpi="96"
       inkscape:export-ydpi="96" />
    <path
       style="fill:none;stroke:#4c4d4c;stroke-width:1.00157;stroke-linecap:butt;stroke-linejoin:miter;stroke-miterlimit:4;stroke-dasharray:none;stroke-opacity:1"
       d="m 7.5384614,25.884615 c 0,0 2.2158828,-4.122021 4.3461536,-6.384615 2.417783,-2.567965 4.769231,-3.730769 6.038461,-4.615384"
       id="path3744"
       inkscape:connector-curvature="0"
       sodipodi:nodetypes="csc" />
    <g
       aria-label="d"
       id="text4576-4"
       style="font-style:normal;font-weight:normal;font-size:40px;line-height:125%;font-family:sans-serif;letter-spacing:0px;word-spacing:0px;fill:#8cbe8c;fill-opacity:1;stroke:#4c4d4c;stroke-width:0.377953;stroke-linecap:butt;stroke-linejoin:miter;stroke-miterlimit:4;stroke-dasharray:none;stroke-opacity:0.933333">
      <path
         d="m 5.4196477,22.930762 v -0.114257 q -0.2327475,0.266601 -0.4612632,0.435872 -0.2242839,0.165039 -0.4908856,0.249675 -0.2623699,0.08887 -0.575521,0.08887 -0.4147137,0 -0.7701826,-0.173503 Q 2.7705582,23.239682 2.5124201,22.913835 2.254282,22.587989 2.1188653,22.147885 1.9876803,21.70778 1.9876803,21.195736 q 0,-1.083334 0.5289716,-1.688477 0.5289715,-0.605144 1.3922531,-0.605144 0.4993491,0 0.8421227,0.173503 0.3427735,0.169271 0.66862,0.52474 v -1.705405 q 0,-0.355469 0.1396485,-0.537435 0.1438803,-0.181966 0.4062502,-0.181966 0.2623698,0 0.4020183,0.169271 0.1438803,0.165039 0.1438803,0.490885 v 5.095054 q 0,0.330079 -0.1523438,0.495118 -0.1523438,0.165039 -0.3935548,0.165039 -0.2369793,0 -0.3935549,-0.169271 Q 5.4196477,23.248145 5.4196477,22.930762 Z M 3.147186,21.233822 q 0,0.469726 0.1438802,0.799805 0.148112,0.330078 0.4020184,0.499349 0.2539063,0.165039 0.5543622,0.165039 0.3046876,0 0.5543622,-0.156576 0.2539063,-0.160807 0.4020183,-0.486653 0.1523438,-0.330079 0.1523438,-0.820964 0,-0.461264 -0.1523438,-0.791342 -0.148112,-0.33431 -0.4062501,-0.507812 -0.2539064,-0.177735 -0.558594,-0.177735 -0.3173829,0 -0.5670575,0.181966 -0.2496745,0.177735 -0.389323,0.516277 -0.1354167,0.33431 -0.1354167,0.778646 z"
         style="font-style:normal;font-variant:normal;font-weight:bold;font-stretch:normal;font-size:8.66667px;line-height:100%;font-family:'Arial Rounded MT Bold';-inkscape-font-specification:'Arial Rounded MT Bold, Bold';fill:#8cbe8c;fill-opacity:1;stroke:#4c4d4c;stroke-width:0.377953;stroke-miterlimit:4;stroke-dasharray:none;stroke-opacity:0.933333"
         id="path844" />
    </g>
  </g>
</svg>
