<?xml version="1.0" encoding="UTF-8" standalone="no"?>
<svg
   xmlns:dc="http://purl.org/dc/elements/1.1/"
   xmlns:cc="http://creativecommons.org/ns#"
   xmlns:rdf="http://www.w3.org/1999/02/22-rdf-syntax-ns#"
   xmlns:svg="http://www.w3.org/2000/svg"
   xmlns="http://www.w3.org/2000/svg"
   xmlns:sodipodi="http://sodipodi.sourceforge.net/DTD/sodipodi-0.dtd"
   xmlns:inkscape="http://www.inkscape.org/namespaces/inkscape"
   viewBox="0 0 24 24"
   version="1.1"
   id="svg11"
   sodipodi:docname="shapetools.svg"
   width="24"
   height="24"
   inkscape:version="0.92.2 (5c3e80d, 2017-08-06)"
   inkscape:export-filename="C:\Users\cjhamil\Documents\GitHub\qgis-shapetools-plugin\svg\shapetools.png"
   inkscape:export-xdpi="96"
   inkscape:export-ydpi="96">
  <metadata
     id="metadata17">
    <rdf:RDF>
      <cc:Work
         rdf:about="">
        <dc:format>image/svg+xml</dc:format>
        <dc:type
           rdf:resource="http://purl.org/dc/dcmitype/StillImage" />
        <dc:title></dc:title>
      </cc:Work>
    </rdf:RDF>
  </metadata>
  <defs
     id="defs15" />
  <sodipodi:namedview
     pagecolor="#ffffff"
     bordercolor="#666666"
     borderopacity="1"
     objecttolerance="10"
     gridtolerance="10"
     guidetolerance="10"
     inkscape:pageopacity="0"
     inkscape:pageshadow="2"
     inkscape:window-width="1525"
     inkscape:window-height="1000"
     id="namedview13"
     showgrid="false"
     inkscape:zoom="34.708333"
     inkscape:cx="12"
     inkscape:cy="12"
     inkscape:window-x="0"
     inkscape:window-y="0"
     inkscape:window-maximized="0"
     inkscape:current-layer="shape_layer" />
  <!-- svg generated using QGIS www.qgis.org -->
  <g
     id="shape_layer"
     inkscape:groupmode="layer"
     inkscape:label="shape_layer"
     transform="translate(0,-813)">
    <g
       id="g5"
       style="fill:#1f78b4;fill-opacity:1;stroke:#000000;stroke-width:11.36586761;stroke-linejoin:round;stroke-miterlimit:4;stroke-dasharray:none;stroke-opacity:1"
       transform="matrix(0.03434986,0,0,0.03434986,-5.0368091,810.91225)">
      <g
         id="shape_layer_1"
         style="fill:#1f78b4;fill-opacity:1;stroke:#000000;stroke-width:11.36586761;stroke-miterlimit:4;stroke-dasharray:none;stroke-opacity:1">
        <path
           d="m 496,86 h 3 3 3 l 3,1 3,1 h 3 l 3,1 3,1 3,1 3,2 3,1 3,1 3,2 3,2 2,2 3,2 3,2 2,2 3,2 2,3 3,2 2,3 3,3 2,2 2,3 2,3 2,3 2,3 2,4 2,3 2,3 2,4 2,3 1,4 2,3 1,4 2,3 1,4 1,4 2,4 1,3 1,4 1,4 1,3 1,4 1,4 1,3 1,4 1,4 v 3 l 1,4 1,3 v 3 l 1,4 1,3 v 3 l 1,3 1,3 v 3 l 1,2 1,3 1,2 v 3 l 1,2 1,2 1,2 1,2 1,2 1,1 2,2 1,1 1,1 2,1 2,1 1,1 h 2 l 2,1 h 2 l 2,1 h 3 2 2 3 3 2 l 3,-1 h 3 3 3 l 4,-1 h 3 3 l 4,-1 h 3 l 4,-1 h 4 3 l 4,-1 h 4 3 4 4 4 4 4 4 4 3 l 4,1 h 4 l 4,1 h 4 l 4,1 h 3 l 4,1 4,1 3,1 4,1 3,1 4,2 3,1 3,1 4,2 3,1 3,2 3,2 3,2 2,1 3,2 3,3 2,2 3,2 2,2 2,2 2,3 2,2 2,3 2,2 1,3 2,3 1,3 2,2 1,3 1,3 1,3 v 3 l 1,3 v 3 l 1,3 v 3 3 4 3 3 l -1,3 v 3 l -1,4 -1,3 -1,3 -1,3 -1,3 -1,3 -1,4 -2,3 -2,3 -1,3 -2,3 -2,3 -2,3 -2,3 -3,3 -2,3 -2,3 -3,3 -2,3 -3,2 -3,3 -3,3 -3,2 -2,3 -3,2 -4,3 -3,2 -3,3 -3,2 -3,2 -3,2 -3,2 -4,3 -3,2 -3,2 -3,1 -3,2 -3,2 -3,2 -3,2 -3,1 -3,2 -3,2 -3,1 -2,2 -3,1 -2,2 -3,1 -2,2 -2,1 -2,2 -2,1 -2,2 -1,1 -2,2 -1,2 -1,1 -1,2 -1,1 v 2 l -1,2 v 2 2 2 2 2 2 l 1,2 v 2 l 1,3 1,2 1,3 1,2 1,3 1,3 1,3 2,3 1,3 1,3 2,3 1,3 2,3 1,3 2,4 1,3 1,4 2,3 1,4 1,3 2,4 1,4 1,3 1,4 1,4 1,4 1,4 1,3 1,4 1,4 v 4 l 1,4 1,3 v 4 4 4 3 4 4 3 4 l -1,4 v 3 l -1,4 v 3 l -1,3 -1,3 -1,4 -1,3 -2,3 -1,3 -1,3 -2,3 -2,2 -1,3 -2,3 -2,2 -2,2 -2,3 -2,2 -3,2 -2,2 -2,2 -3,1 -2,2 -3,2 -3,1 -3,1 -2,2 -3,1 -3,1 h -3 l -3,1 -4,1 h -3 l -3,1 h -3 -4 -3 -3 -4 l -3,-1 h -4 l -3,-1 -4,-1 h -3 l -3,-1 -4,-1 -3,-1 -4,-2 -3,-1 -4,-2 -3,-1 -4,-2 -3,-1 -4,-2 -3,-2 -3,-2 -4,-2 -3,-2 -3,-2 -4,-2 -3,-3 -3,-2 -3,-2 -3,-3 -3,-2 -3,-2 -3,-3 -3,-2 -2,-3 -3,-2 -3,-3 -2,-2 -3,-2 -3,-3 -2,-2 -2,-2 -3,-2 -2,-2 -2,-2 -2,-2 -3,-2 -2,-2 -2,-1 -2,-1 -2,-2 -2,-1 -2,-1 -2,-1 -1,-1 h -2 l -2,-1 h -2 -2 -2 -2 l -1,1 h -2 l -2,1 -2,1 -2,1 -2,1 -2,2 -2,1 -2,1 -2,2 -2,2 -2,2 -3,2 -2,2 -2,2 -3,2 -2,2 -3,3 -2,2 -3,2 -3,3 -2,2 -3,3 -3,2 -3,3 -3,2 -3,2 -3,3 -3,2 -3,2 -3,3 -3,2 -4,2 -3,2 -3,2 -4,2 -3,2 -3,2 -4,1 -3,2 -4,1 -3,2 -4,1 -3,2 -4,1 -3,1 -4,1 h -3 l -4,1 -3,1 h -4 l -3,1 h -3 -4 -3 -3 -4 l -3,-1 h -3 l -3,-1 -3,-1 h -3 l -3,-1 -3,-1 -3,-2 -3,-1 -3,-1 -2,-2 -3,-2 -2,-1 -3,-2 -2,-2 -2,-2 -3,-2 -2,-3 -2,-2 -2,-2 -1,-3 -2,-3 -2,-2 -1,-3 -2,-3 -1,-3 -1,-3 -1,-3 -1,-4 -1,-3 -1,-3 -1,-3 -1,-4 v -3 -4 l -1,-4 v -3 -4 -4 -3 -4 -4 l 1,-4 v -3 l 1,-4 v -4 l 1,-4 1,-4 1,-3 1,-4 1,-4 1,-4 1,-4 1,-3 2,-4 1,-4 1,-3 2,-4 1,-3 1,-4 2,-3 1,-4 2,-3 1,-3 2,-3 1,-3 1,-3 2,-3 1,-3 1,-3 1,-3 1,-3 1,-2 1,-3 1,-2 1,-3 v -2 l 1,-2 v -2 l 1,-2 v -2 -2 l -1,-2 v -2 -2 l -1,-2 -1,-1 -1,-2 -1,-1 -1,-2 -2,-2 -1,-1 -2,-2 -2,-1 -2,-2 -2,-1 -2,-2 -2,-1 -3,-2 -2,-1 -3,-2 -3,-1 -2,-2 -3,-2 -3,-1 -3,-2 -3,-2 -3,-2 -4,-2 -3,-1 -3,-2 -3,-2 -3,-3 -4,-2 -3,-2 -3,-2 -3,-2 -3,-3 -3,-2 -3,-3 -3,-2 -3,-3 -3,-2 -3,-3 -3,-3 -2,-2 -3,-3 -2,-3 -3,-3 -2,-3 -2,-3 -3,-3 -2,-3 -2,-3 -1,-3 -2,-3 -2,-3 -1,-3 -2,-4 -1,-3 -1,-3 -1,-3 -1,-3 -1,-3 v -4 l -1,-3 v -3 l -1,-3 v -3 -4 -3 -3 l 1,-3 v -3 l 1,-3 1,-3 1,-3 1,-3 1,-3 1,-2 1,-3 2,-3 1,-3 2,-2 2,-3 2,-2 2,-3 2,-2 3,-2 2,-2 3,-2 2,-3 3,-2 3,-1 3,-2 3,-2 3,-2 3,-1 3,-2 3,-1 4,-1 3,-2 4,-1 3,-1 4,-1 3,-1 4,-1 h 4 l 4,-1 h 3 l 4,-1 h 4 l 4,-1 h 4 4 4 3 4 4 4 4 4 3 l 4,1 h 4 3 l 4,1 h 3 l 4,1 h 3 4 l 3,1 h 3 3 3 l 3,1 h 3 2 3 2 3 2 l 2,-1 h 2 l 2,-1 h 2 l 2,-1 1,-1 2,-1 1,-1 2,-1 1,-2 1,-1 1,-2 1,-2 1,-2 1,-2 1,-2 1,-3 v -2 l 1,-3 1,-2 1,-3 v -3 l 1,-3 1,-3 v -3 l 1,-4 1,-3 v -3 l 1,-4 1,-3 1,-4 v -4 l 1,-3 1,-4 1,-4 1,-3 1,-4 1,-4 2,-3 1,-4 1,-4 2,-4 1,-3 2,-4 1,-3 2,-4 1,-3 2,-4 2,-3 2,-3 2,-4 2,-3 2,-3 2,-3 3,-3 2,-2 2,-3 3,-3 2,-2 3,-3 2,-2 3,-2 2,-2 3,-2 3,-2 3,-2 2,-2 3,-1 3,-1 3,-2 3,-1 3,-1 3,-1 h 3 l 3,-1 3,-1 h 3 3 3"
           id="path2"
           inkscape:connector-curvature="0"
           style="fill:#1f78b4;fill-opacity:1;stroke:#000000;stroke-width:11.36586761;stroke-miterlimit:4;stroke-dasharray:none;stroke-opacity:1" />
      </g>
    </g>
  </g>
  <!-- QGIS extent for clipping, eg in Inkscape -->
</svg>
