<svg height="24" viewBox="0 0 24 24" width="24" xmlns="http://www.w3.org/2000/svg"><g transform="translate(0 -8)"><g fill="#8cbe8c" stroke="#4c4d4c" stroke-opacity=".933333" stroke-width=".377953"><path d="m 6.3387938 14.759064 -.2962241 -.778646 h -2.5221363 l -.2962241 .795573 q -.1735027 .465495 -.2962241 .630534 -.1227214 .160808 -.4020183 .160808 -.2369793 0 -.4189455 -.173503 -.1819662 -.173503 -.1819662 -.393555 0 -.126953 .042318 -.26237 .042318 -.135416 .1396485 -.376628 l 1.5869143 -4.028647 q .0677084 -.173502 .1608074 -.4147135 .0973308 -.2454428 .2031251 -.4062502 .1100261 -.1608073 .2835287 -.2581381 .1777345 -.1015625 .4358726 -.1015625 .2623699 0 .4358725 .1015625 .1777345 .097331 .2835288 .2539064 .1100261 .1565755 .1819662 .3385418 .076172 .1777346 .1904298 .4781906 l 1.6207688 4.003256 q .1904297 .457032 .1904297 .664389 0 .21582 -.1819662 .397786 -.1777344 .177735 -.4316408 .177735 -.148112 0 -.2539063 -.05501 -.1057943 -.05078 -.1777344 -.139649 -.07194 -.0931 -.1565756 -.279297 -.080404 -.19043 -.1396485 -.33431 z m -2.4882822 -1.722331 h 1.8535163 l -.9352217 -2.560223 z"/><path d="m 11.662364 12.19461 -2.1158866 2.365561 h 2.2639986 q .275065 0 .414713 .131185 .139649 .126953 .139649 .330078 0 .194662 -.139649 .317383 -.135416 .122721 -.414713 .122721 h -3.131512 q -.3300782 0 -.4951174 -.14388 -.1608073 -.14388 -.1608073 -.393555 0 -.148112 .1142579 -.296224 .1142578 -.152344 .4739585 -.554362 .3808595 -.423177 .6897789 -.765951 .3131511 -.342773 .5797528 -.638997 .2666016 -.300456 .4401046 -.507813 .177734 -.207357 .283528 -.355469 h -1.7180991 q -.3554689 0 -.5374351 -.06348 -.1819662 -.06348 -.1819662 -.33431 0 -.198893 .1354167 -.317383 .1396485 -.118489 .3935548 -.118489 h 2.6533209 q .368165 0 .562826 .110026 .198893 .105794 .198893 .385091 0 .0931 -.03809 .194662 -.03808 .09733 -.08463 .160807 -.04655 .06348 -.126953 .156576 -.0804 .08887 -.198893 .21582 z"/></g><g transform="translate(33 8)"><rect fill="#c4a000" height="11" rx="2.0114901" width="11" x="-20" y="13"/><g fill="#fcffff"><path d="m -15 14 v 2.0625 c -.537663 .111041 -1.024662 .383291 -1.375 .78125 l -1.78125 -1.03125 -.5 .875 1.78125 1.03125 c -.082063 .247432 -.125 .506395 -.125 .78125 s .04294 .533818 .125 .78125 l -1.78125 1.03125 .5 .875 1.78125 -1.03125 c .352503 .40042 .832682 .670182 1.375 .78125 v 2.0625 h 1 v -2.0625 c .537663 -.111041 1.024662 -.383291 1.375 -.78125 l 1.78125 1.03125 .5 -.875 -1.78125 -1.03125 c .082063 -.247432 .125 -.506395 .125 -.78125 s -.04294 -.533818 -.125 -.78125 l 1.78125 -1.03125 -.5 -.875 -1.78125 1.03125 c -.352503 -.40042 -.832682 -.670182 -1.375 -.78125 v -2.0625 z m .5 3.5 c .552 0 1 .448 1 1 s -.448 1 -1 1 -1 -.448 -1 -1 .448 -1 1 -1 z"/><path d="m -19 19 9 -.0096 s 0 0 0 -2 c 0 -2.9904 -1 -2.9904 -4.5 -2.9904 s -4.5 0 -4.5 3 z" fill-rule="evenodd" opacity=".3"/></g></g><g stroke="#4c4d4c"><rect fill="#8cbe8c" height="5" rx="3.125" stroke-linecap="round" width="5" x="3.6538463" y="25.384615"/><rect fill="#c4a000" height="5" rx="3.125" stroke-linecap="round" width="5" x="17.076921" y="10.692308"/><path d="m 7.5384614 25.884615 s 2.2158828 -4.122021 4.3461536 -6.384615 c 2.417783 -2.567965 4.769231 -3.730769 6.038461 -4.615384" fill="none" stroke-width="1.00157"/><path d="m 5.4196477 22.930762 v -.114257 q -.2327475 .266601 -.4612632 .435872 -.2242839 .165039 -.4908856 .249675 -.2623699 .08887 -.575521 .08887 -.4147137 0 -.7701826 -.173503 -.3512371 -.177737 -.6093752 -.503584 -.2581381 -.325846 -.3935548 -.76595 -.131185 -.440105 -.131185 -.952149 0 -1.083334 .5289716 -1.688477 .5289715 -.605144 1.3922531 -.605144 .4993491 0 .8421227 .173503 .3427735 .169271 .66862 .52474 v -1.705405 q 0 -.355469 .1396485 -.537435 .1438803 -.181966 .4062502 -.181966 .2623698 0 .4020183 .169271 .1438803 .165039 .1438803 .490885 v 5.095054 q 0 .330079 -.1523438 .495118 -.1523438 .165039 -.3935548 .165039 -.2369793 0 -.3935549 -.169271 -.1523438 -.173503 -.1523438 -.490886 z m -2.2724617 -1.69694 q 0 .469726 .1438802 .799805 .148112 .330078 .4020184 .499349 .2539063 .165039 .5543622 .165039 .3046876 0 .5543622 -.156576 .2539063 -.160807 .4020183 -.486653 .1523438 -.330079 .1523438 -.820964 0 -.461264 -.1523438 -.791342 -.148112 -.33431 -.4062501 -.507812 -.2539064 -.177735 -.558594 -.177735 -.3173829 0 -.5670575 .181966 -.2496745 .177735 -.389323 .516277 -.1354167 .33431 -.1354167 .778646 z" fill="#8cbe8c" stroke-opacity=".933333" stroke-width=".377953"/></g></g></svg>