<svg height="24" viewBox="0 0 24 24" width="24" xmlns="http://www.w3.org/2000/svg"><g transform="translate(0 -290.65)"><path d="m 20.716785 293.12993 c -10.563469 1.26323 -16.7173182 9.38815 -18.3824431 18.85871 l 1.7522147 .34531 c 1.5569435 -8.85527 7.0255964 -16.15649 16.8301974 -17.32897 z" fill="#1f78b4" fill-rule="evenodd" stroke="#000009" stroke-width=".5291667"/><g stroke-linecap="square"><circle cx="3.4406035" cy="311.27625" fill="#1f78b4" r="2.8405094" stroke="#000" stroke-dashoffset="42.33071136" stroke-width=".529"/><circle cx="20.548803" cy="294.07684" fill="#1f78b4" r="2.8405094" stroke="#000" stroke-dashoffset="42.33071136" stroke-width=".5291667"/><circle cx="8.7703705" cy="300.52432" fill="#ff3230" r="2.4403365" stroke="#000" stroke-dashoffset="42.33071136" stroke-width=".5291667"/><path d="m 7.6328125 3.0371094 -1.4550781 .4121094 .2050781 .7265624 1.4003906 4.9492188 h -5.5605469 -.7558593 v 1.511719 h .7558593 5.9902344 l 1.6679688 5.894531 .2050786 .726562 1.455078 -.410156 -.207032 -.728515 -1.5507809 -5.482422 h 5.3281249 .75586 v -1.511719 h -.75586 -5.7558592 l -1.5175782 -5.3613281 z" fill="#f00" stroke="#120000" stroke-linejoin="round" stroke-width=".37795276" transform="translate(0 290.65)"/></g></g></svg>