<svg height="24" viewBox="0 0 24 24" width="24" xmlns="http://www.w3.org/2000/svg"><g transform="translate(0 -290.65)"><g fill="#1f78b4"><path d="m 18.492188 294.49609 -.480469 1.31446 c 1.19641 .43715 2.190842 1.9904 2.804687 3.52148 .442289 1.10318 .515876 1.62155 .623047 2.11524 h -20.77148425 l .12109375 .80273 s .6925247 4.59079 4.8359375 8.04883 l .8984375 -1.07422 c -3.118232 -2.60244 -3.8670428 -5.36997 -4.09375 -6.37891 h 20.7753905 l -.144531 -.82031 s -.268315 -1.52916 -.943359 -3.21289 c -.675045 -1.68373 -1.73993 -3.62763 -3.625 -4.31641 z" stroke="#000009"/><circle cx="18.119173" cy="295.05463" r="2.8405094" stroke="#000" stroke-dashoffset="42.33071136" stroke-linecap="square" stroke-width=".5291667"/><circle cx="6.0776405" cy="310.00217" r="2.8405094" stroke="#000" stroke-dashoffset="42.33071136" stroke-linecap="square" stroke-width=".52899998"/></g><path d="m 9.4181423 299.05374 -.8808593 .47461 3.023438 5.60156 .878907 -.47656 z" fill="#ff3230" stroke="#800"/><path d="m 13.537436 299.05374 -.880859 .47461 3.023437 5.60156 .878907 -.47656 z" fill="#ff3230" stroke="#800"/></g></svg>