<svg height="24" viewBox="0 0 24 24" width="24" xmlns="http://www.w3.org/2000/svg"><g transform="translate(0 -8)"><g transform="translate(33 8)"><rect fill="#c4a000" height="11" rx="2.0114901" width="11" x="-20" y="13"/><g fill="#fcffff"><path d="m -15 14 v 2.0625 c -.537663 .111041 -1.024662 .383291 -1.375 .78125 l -1.78125 -1.03125 -.5 .875 1.78125 1.03125 c -.082063 .247432 -.125 .506395 -.125 .78125 s .04294 .533818 .125 .78125 l -1.78125 1.03125 .5 .875 1.78125 -1.03125 c .352503 .40042 .832682 .670182 1.375 .78125 v 2.0625 h 1 v -2.0625 c .537663 -.111041 1.024662 -.383291 1.375 -.78125 l 1.78125 1.03125 .5 -.875 -1.78125 -1.03125 c .082063 -.247432 .125 -.506395 .125 -.78125 s -.04294 -.533818 -.125 -.78125 l 1.78125 -1.03125 -.5 -.875 -1.78125 1.03125 c -.352503 -.40042 -.832682 -.670182 -1.375 -.78125 v -2.0625 z m .5 3.5 c .552 0 1 .448 1 1 s -.448 1 -1 1 -1 -.448 -1 -1 .448 -1 1 -1 z"/><path d="m -19 19 9 -.0096 s 0 0 0 -2 c 0 -2.9904 -1 -2.9904 -4.5 -2.9904 s -4.5 0 -4.5 3 z" fill-rule="evenodd" opacity=".3"/></g></g><g stroke="#4c4d4c"><rect fill="#8cbe8c" height="5" rx="3.125" stroke-linecap="round" stroke-width=".99999994" width="5" x="3.6538463" y="25.384615"/><rect fill="#c4a000" height="5" rx="3.125" stroke-linecap="round" stroke-width=".99999994" width="5" x="17.076921" y="10.692308"/><path d="m 7.5384614 25.884615 s 2.2158828 -4.122021 4.3461536 -6.384615 c 2.417783 -2.567965 4.769231 -3.730769 6.038461 -4.615384" fill="none" stroke-width="1.00157475"/><rect fill="#c4a000" height="5" rx="3.125" stroke-linecap="round" stroke-width=".99999994" width="5" x="1.9230765" y="11.615384"/><path d="m 6.9235273 13.856094 c 4.2155797 -.253457 6.4110307 -.365846 10.3076907 -.692307" fill="none" stroke-width="1.00157475"/></g></g></svg>