<svg height="24" viewBox="0 0 24 24" width="24" xmlns="http://www.w3.org/2000/svg"><g fill="#1f78b4" stroke-width=".5"><path d="m 4.4981088 16.871343 .2105111 1.789011 c 3.0248958 -2.703512 10.7442981 -3.2486 14.4107681 -.312534 l .13583 -1.781128 c -2.540089 -3.034545 -11.4724579 -3.039295 -14.7571092 .304651 z" fill-rule="evenodd" stroke="#000021"/><circle cx="4.0678005" cy="18.000273" r="2.8405094" stroke="#000" stroke-dashoffset="42.3307" stroke-linecap="square"/><circle cx="19.945745" cy="18.000273" r="2.8405094" stroke="#000" stroke-dashoffset="42.3307" stroke-linecap="square"/></g><g><path d="m 8.3051948 10.829885 h -4.5299464 v -1.1848959 h 1.4309891 v -3.5865873 h -1.4309891 v -1.1074215 q .3281249 0 .6289061 -.036458 .3007811 -.041016 .5013019 -.136719 .2369791 -.1139323 .3554686 -.2962239 .1184896 -.1822916 .1367187 -.455729 h 1.508463 v 5.6191387 h 1.3990881 z"/><path d="m 15.368995 10.829885 h -5.327472 v -1.1210938 q .610676 -.4420572 1.221353 -.9388018 .615234 -.4967446 .984375 -.8567705 .551432 -.533203 .783854 -.9296872 .232422 -.3964843 .232422 -.7838539 0 -.4648436 -.300782 -.7154946 -.296223 -.2552082 -.85677 -.2552082 -.419271 0 -.884114 .173177 -.460287 .173177 -.856771 .4420571 h -.145833 v -1.508463 q .323567 -.141276 .952473 -.282552 .633464 -.141276 1.266927 -.141276 1.276041 0 1.945963 .5377603 .669922 .5332029 .669922 1.5130203 0 .6425779 -.323568 1.2213537 -.31901 .5787759 -.979817 1.19401 -.414714 .3828124 -.833984 .70638 -.419271 .3190103 -.597005 .4466144 h 3.048827 z"/><path d="m 21.339045 7.648896 q .223307 .1914062 .355469 .4466145 .132161 .2552082 .132161 .6790362 0 .4785154 -.191406 .8932288 -.186849 .4147135 -.578776 .7109375 -.382812 .287109 -.902344 .442057 -.514973 .150391 -1.253254 .150391 -.843099 0 -1.449219 -.132162 -.601562 -.132161 -.979817 -.296224 v -1.4902336 h .177734 q .391927 .2369791 .934245 .4101561 .546875 .173177 .998046 .173177 .264323 0 .574219 -.041016 .309896 -.045573 .524088 -.1914062 .16862 -.1139322 .26888 -.2734374 .100261 -.1640624 .100261 -.4694009 0 -.2962238 -.136719 -.455729 -.136719 -.164062 -.360026 -.2324214 -.223307 -.072917 -.53776 -.077474 -.314453 -.00911 -.583333 -.00911 h -.373698 v -1.2122437 h .38737 q .355468 0 .628906 -.022786 .273437 -.022786 .464843 -.1048177 .200521 -.086588 .300781 -.2278645 .100261 -.1458333 .100261 -.423828 0 -.205078 -.104818 -.3281249 -.104817 -.1276041 -.264323 -.2005207 -.177734 -.082031 -.41927 -.109375 -.241537 -.027344 -.414714 -.027344 -.428385 0 -.929687 .1503906 -.501302 .1458332 -.970703 .4238279 h -.168619 v -1.4720048 q .373697 -.1503905 1.016275 -.2871093 .642578 -.1412759 1.303385 -.1412759 .642578 0 1.125651 .1139322 .483073 .109375 .797526 .2962239 .373697 .2233072 .555989 .5423175 .182292 .3190103 .182292 .7473956 0 .5651039 -.350912 1.0117184 -.350911 .4420571 -.92513 .5651039 v .063802 q .232422 .031901 .492188 .1276041 .259765 .095703 .473958 .2779948 z"/></g></svg>