<svg height="24" viewBox="0 0 24 24" width="24" xmlns="http://www.w3.org/2000/svg"><path d="m 2.2876454 .94394841 -.0308492 3.76752669 c 3.6001226 .026877 9.1501048 -.014391 11.7535758 .027595 2.26522 .03653 5.132533 2.5901877 5.174965 5.8058159 .0229 1.736001 -.393046 3.23005 -1.099006 4.216394 -.705958 .986343 -1.612522 1.576834 -3.25267 1.70532 -.545455 .04274 -2.905006 .03618 -4.908891 -.0055 -.809697 -.01683 -.8980103 -.02327 -1.5347519 -.04047 l .077123 -2.575457 -6.9622963 4.209034 6.6923651 4.737002 .079051 -2.603052 c .6463682 .01759 .736295 .02331 1.5617446 .04047 2.0330755 .04226 4.1403595 .08501 5.3195725 -.0074 2.679872 -.209935 4.882225 -1.506549 6.191065 -3.335218 1.308838 -1.828669 1.815891 -4.076366 1.7854 -6.387135 -.068418 -5.184959 -4.196506 -9.4471231 -9.056189 -9.52549179 -2.738153 -.04415731 -8.2538792 -.00303362 -11.7902086 -.0294338 z" fill="#1f78b4" stroke="#000" stroke-width=".96426338"/></svg>