<svg height="24" viewBox="0 0 24 24" width="24" xmlns="http://www.w3.org/2000/svg"><path d="m 8.2150933 1.4388891 c -2.8183472 .0466368 -5.2878242 1.2552559 -6.2839838 4.1947259 -.9884678 2.916771 1.1714865 8.182008 5.9325763 5.840503 7.9077412 -3.889027 7.9038032 .963382 9.8807382 .963382 2.438571 0 4.94037 -1.699566 4.94037 -3.873599 0 -1.944514 .09638 -3.806388 -.992208 -4.87712 -1.976935 -1.944514 -2.973677 .987396 -8.289071 -1.184158 -1.694017 -.6920746 -3.497413 -1.0917169 -5.1884217 -1.0637339 z" fill="#1f78b4" fill-rule="evenodd" stroke="#000" stroke-linecap="round" stroke-linejoin="round"/><path d="m 14.000001 18.999999 8.999999 -.009599 s 0 0 0 -2 c 0 -2.9904 -1 -2.9904 -4.5 -2.9904 s -4.5 0 -4.5 3 c 0 2 0 2 .000001 1.999999 z" fill="#fcffff" fill-rule="evenodd" opacity=".3"/><path d="m 21.498844 18.2375 c 0 -1.520773 -1.240344 -2.750705 -2.999423 -2.737371 -1.898205 -.01537 -2.999421 1.247555 -2.999421 2.999871 0 1.439852 1.50029 2.5 3 2.5" fill="none" stroke="#fff" stroke-linecap="square" stroke-width="1.5"/><g stroke-linecap="round" stroke-linejoin="round"><path d="m 18.58077 19 1.5 2 -1.5 2" fill="none" stroke="#fff" stroke-width="1.5"/><path d="m 14.689276 13.043 c -1.695325 -.92621 -3.603022 -1.055425 -5.259125 .325178 -1.6433127 1.36994 -2.2607369 5.177282 1.42135 5.419787 6.115618 .402781 4.35876 3.236837 5.536119 3.905648 1.452285 .824984 3.556748 .678258 4.342826 -.592092 .703088 -1.13623 1.433695 -2.191566 1.172539 -3.185498 -.474268 -1.805042 -2.127985 -.429052 -4.508377 -3.496182 -.75863 -.977494 -1.688137 -1.821115 -2.705333 -2.376845 z" fill="#ff3230" fill-rule="evenodd" stroke="#000"/></g></svg>